PathFileType	4	(X/Y/Z)	./resultDataOpenSim/trcMotMarkerGrf/sub10/qtm-15-04.trc
DataRate	CameraRate	NumFrames	NumMarkers	Units	OrigDataRate	OrigDataStartFrame	OrigNumFrames
250.000000	250.000000	13	24	m	250.000000	63	501
Frame#	Time	L.Toe.Tip			R.Toe.Tip			L.Ankle.Lat			R.Ankle.Lat			L.Ankle.Med			R.Ankle.Med			L.Heel			R.Heel			L.Knee.Lat			R.Knee.Lat			L.Knee.Med			R.Knee.Med			L.Thigh.Upper			R.Thigh.Upper			L.ASIS			R.ASIS			V.Sacral			L.Acromium			R.Acromium			C7			L.Elbow			R.Elbow			L.Wrist.Lat			R.Wrist.Lat
		X1	Y1	Z1	X2	Y2	Z2	X3	Y3	Z3	X4	Y4	Z4	X5	Y5	Z5	X6	Y6	Z6	X7	Y7	Z7	X8	Y8	Z8	X9	Y9	Z9	X10	Y10	Z10	X11	Y11	Z11	X12	Y12	Z12	X13	Y13	Z13	X14	Y14	Z14	X15	Y15	Z15	X16	Y16	Z16	X17	Y17	Z17	X18	Y18	Z18	X19	Y19	Z19	X20	Y20	Z20	X21	Y21	Z21	X22	Y22	Z22	X23	Y23	Z23	X24	Y24	Z24

63	0.248	-1.3210419	0.079076839	-0.18762564	-0.68515768	0.038793005	-0.045039663	-1.3089555	0.21565709	-0.22818883	-0.82278155	0.052081798	-0.00084773169	-1.2783268	0.21037193	-0.14979216	-0.8097705	0.081094855	-0.085144804	-1.346065	0.26864785	-0.18203469	-0.87823632	0.02853584	-0.046088129	-0.99357892	0.41641062	-0.2553026	-0.79135489	0.45052654	0.045071411	-0.97164461	0.37539968	-0.14253814	-0.79061521	0.46119699	-0.082719526	-0.95948549	0.7935631	-0.25432509	-0.89037161	0.84822466	0.12440247	-0.88564839	0.90017876	-0.2018072	-0.83764091	0.93059699	0.032613881	-1.0621229	0.93717919	-0.048092541	-0.90104499	1.3922029	-0.22559513	-0.94135401	1.3842828	0.09419403	-1.0059488	1.4190416	-0.075378915	-0.9567289	1.0633353	-0.34331827	-1.0803695	1.0696106	0.12007901	-0.76212734	0.90677544	-0.30310544	-1.0305075	0.84244745	0.19673242
64	0.252	-1.3064458	0.080089919	-0.18908175	-0.68523829	0.038810475	-0.044955286	-1.2965195	0.21715894	-0.22812878	-0.82290792	0.052093671	-0.00081899736	-1.2659468	0.21188252	-0.1497874	-0.8097762	0.081151184	-0.085066011	-1.3350866	0.26915929	-0.18133252	-0.87829368	0.028562613	-0.046208762	-0.98097901	0.41748257	-0.25523624	-0.78930653	0.45040659	0.045096114	-0.95928464	0.37678104	-0.14228789	-0.78823666	0.46138247	-0.082402105	-0.95241347	0.7950641	-0.25413099	-0.8859184	0.84875811	0.1245097	-0.87972944	0.90224001	-0.20191759	-0.83229771	0.93148826	0.033338696	-1.0566779	0.93827288	-0.048892872	-0.89562632	1.393584	-0.22530314	-0.93563073	1.3855553	0.094513659	-1.0005752	1.4202678	-0.074937884	-0.95264078	1.0647853	-0.34270459	-1.0731986	1.0700209	0.12141398	-0.75963567	0.90646992	-0.30332065	-1.0214848	0.84300839	0.19742996
65	0.256	-1.291554	0.080963322	-0.19054365	-0.68535	0.038836689	-0.044833953	-1.2839541	0.21850373	-0.22802715	-0.82303513	0.052100766	-0.0007905707	-1.2536115	0.21329208	-0.14971991	-0.80981725	0.081219621	-0.08496564	-1.3239681	0.26941731	-0.18061164	-0.87834612	0.028621511	-0.046431965	-0.96843708	0.41860262	-0.25512492	-0.78755096	0.45031875	0.045245466	-0.94661572	0.37825571	-0.14206352	-0.78609197	0.46153808	-0.082062785	-0.94543905	0.79665862	-0.25393416	-0.88153389	0.84933417	0.12463544	-0.87374402	0.90437756	-0.20197801	-0.82707208	0.93247523	0.034111963	-1.0511297	0.93943643	-0.049521346	-0.89029063	1.3950137	-0.22501052	-0.93000242	1.3868487	0.094872009	-0.99524471	1.4214685	-0.074544321	-0.94863381	1.0662853	-0.34209174	-1.0660491	1.0704298	0.12272316	-0.75728463	0.90618162	-0.30350884	-1.0123881	0.84366497	0.1981475
66	0.26	-1.2762441	0.081754741	-0.19205849	-0.68548538	0.038870221	-0.044680891	-1.2713121	0.21971984	-0.22791491	-0.82315807	0.052101378	-0.00076470094	-1.2412048	0.21461349	-0.14963235	-0.80990022	0.081295013	-0.084844162	-1.3127337	0.26947427	-0.17999601	-0.87839237	0.028687023	-0.04666944	-0.95594245	0.41980034	-0.25497876	-0.78614619	0.45024845	0.045529866	-0.93370336	0.37983263	-0.14183896	-0.78412784	0.46164396	-0.081707879	-0.93854358	0.79832259	-0.25373646	-0.87722267	0.84996667	0.12477242	-0.86775283	0.90652486	-0.20200278	-0.82198725	0.93355936	0.034904912	-1.0455334	0.94066489	-0.050064367	-0.88502911	1.3964939	-0.22473277	-0.92446066	1.3881592	0.095278116	-0.98994593	1.4226633	-0.074186215	-0.9446885	1.0678299	-0.34147451	-1.0589066	1.0708185	0.12402507	-0.75506295	0.90590678	-0.30366666	-1.0033114	0.84438948	0.19883723
67	0.264	-1.2604823	0.0824847	-0.1936464	-0.68563593	0.038910417	-0.044502399	-1.2585933	0.2208144	-0.227795	-0.82327666	0.052096277	-0.00073974235	-1.2286367	0.21584271	-0.14956353	-0.81002288	0.081371347	-0.084704174	-1.3013714	0.26934824	-0.17950195	-0.87843015	0.02873202	-0.04681844	-0.9434817	0.42109216	-0.25479715	-0.78501767	0.45017192	0.045878691	-0.92087762	0.38147548	-0.14155343	-0.78233666	0.46169729	-0.081325066	-0.93172027	0.80003031	-0.25353489	-0.87299431	0.8506399	0.12492293	-0.86182699	0.908619	-0.20200567	-0.81708237	0.93474276	0.035680976	-1.0399399	0.94194447	-0.050585755	-0.87982712	1.3980151	-0.22446618	-0.91900764	1.3895017	0.095708326	-0.98466585	1.423874	-0.073854167	-0.94078196	1.0694201	-0.34084904	-1.0517559	1.0711694	0.12534601	-0.75296446	0.90563981	-0.30379503	-0.99427485	0.84514713	0.1994863
68	0.268	-1.244372	0.083139394	-0.19527458	-0.68579624	0.038956959	-0.044300644	-1.2457657	0.22177396	-0.2276753	-0.82339132	0.052086351	-0.00071335142	-1.2158618	0.21694263	-0.14952775	-0.81017649	0.081445479	-0.084551627	-1.2898422	0.26903523	-0.1790953	-0.87846499	0.028785239	-0.046982062	-0.93105874	0.42246397	-0.25456876	-0.78403044	0.45008924	0.046251302	-0.90846014	0.38313571	-0.14114983	-0.78072033	0.46170835	-0.080915428	-0.92496818	0.80175932	-0.25333251	-0.86886099	0.85133669	0.12509732	-0.85595904	0.91064281	-0.20197344	-0.81235841	0.93602137	0.036427453	-1.0343506	0.94325826	-0.051063131	-0.87467904	1.3995632	-0.22419322	-0.91363527	1.3908852	0.096129158	-0.97939307	1.4251112	-0.073546374	-0.93689852	1.0710602	-0.34021678	-1.0446091	1.0714911	0.12669511	-0.75098535	0.90537695	-0.30390165	-0.98528613	0.84593007	0.20009848
69	0.272	-1.2280501	0.083698948	-0.19689286	-0.68596554	0.039008658	-0.044076496	-1.2327921	0.22257188	-0.22757496	-0.82350053	0.052073457	-0.00068608941	-1.2028806	0.21784217	-0.14950316	-0.81035306	0.08151834	-0.084392757	-1.278106	0.26853364	-0.17877427	-0.87850735	0.028896805	-0.047347599	-0.91870831	0.4238925	-0.25429046	-0.78302538	0.45004047	0.046660437	-0.89647596	0.38480037	-0.14061685	-0.77926035	0.46168751	-0.080502542	-0.91828471	0.80349411	-0.25315085	-0.86483383	0.85205054	0.12529593	-0.85008824	0.91261638	-0.20187959	-0.80773699	0.93737783	0.03718628	-1.0287255	0.94458573	-0.051419483	-0.86959902	1.4011364	-0.22390225	-0.90833657	1.3923062	0.096530403	-0.97411727	1.4263724	-0.073257186	-0.93303106	1.0727525	-0.33958089	-1.0375268	1.0718247	0.12800697	-0.74911669	0.90511904	-0.30399461	-0.97637977	0.846748	0.20066793
70	0.276	-1.2115783	0.084163134	-0.19847506	-0.6861448	0.039063551	-0.043838444	-1.2196492	0.2231644	-0.22749951	-0.8236059	0.052062368	-0.00066102139	-1.1897021	0.2184798	-0.14946221	-0.81055309	0.081593799	-0.084230458	-1.2661403	0.26784403	-0.17856626	-0.87855686	0.029034713	-0.047799374	-0.90648093	0.42537265	-0.25397305	-0.78191503	0.45006482	0.047117551	-0.88476464	0.38648339	-0.13997618	-0.77792322	0.46163868	-0.080111307	-0.91166301	0.8052288	-0.25301606	-0.86091595	0.85278061	0.12551022	-0.84417764	0.91456379	-0.20171257	-0.80310912	0.93878644	0.038015523	-1.0230476	0.94590886	-0.051634685	-0.86461327	1.4027411	-0.22360444	-0.90312067	1.393751	0.096930722	-0.96883144	1.4276508	-0.072973021	-0.92917745	1.0744946	-0.33893714	-1.0305907	1.072211	0.12907203	-0.74734112	0.90486814	-0.30407471	-0.96753613	0.84760476	0.20119069
71	0.28	-1.194984	0.084558387	-0.19999889	-0.68633337	0.039120625	-0.043599606	-1.2063266	0.22349937	-0.22745195	-0.82371153	0.052058634	-0.00064199079	-1.1763524	0.21883974	-0.14939182	-0.81078026	0.081675985	-0.084067605	-1.2539566	0.26695376	-0.17845306	-0.87860183	0.029093028	-0.047964692	-0.89438559	0.42691334	-0.25361368	-0.78075654	0.45015294	0.047589435	-0.87318717	0.38820005	-0.13925708	-0.77667888	0.46156088	-0.079750789	-0.90508611	0.80696311	-0.25292712	-0.85707219	0.85353626	0.12575059	-0.83823671	0.91649166	-0.20147936	-0.79841975	0.94022276	0.038925301	-1.0173751	0.94722556	-0.051824831	-0.85972557	1.4043726	-0.22332039	-0.89800501	1.3952007	0.09735172	-0.96353681	1.42894	-0.072683454	-0.92533633	1.0762763	-0.33827661	-1.0238154	1.0726479	0.1295507	-0.74563604	0.90462358	-0.30413783	-0.95864389	0.84850163	0.20169706
72	0.284	-1.1783524	0.084917839	-0.20141371	-0.68652818	0.039180541	-0.043368001	-1.1928271	0.22354583	-0.227448	-0.82380941	0.052064776	-0.00063433285	-1.1628869	0.21893928	-0.1493009	-0.8110246	0.081765431	-0.083913189	-1.2415927	0.26584027	-0.17836542	-0.87863571	0.029010028	-0.047669113	-0.88231811	0.42851615	-0.25317397	-0.77966949	0.45026154	0.048021377	-0.86164609	0.38997385	-0.13849109	-0.77551401	0.46145205	-0.079418031	-0.89852522	0.80869156	-0.25285393	-0.85319698	0.8543411	0.12606482	-0.83228432	0.91839272	-0.20118626	-0.79368064	0.94166344	0.039881136	-1.0117894	0.94853815	-0.052145757	-0.85487688	1.4060139	-0.2230454	-0.89299221	1.396644	0.097794411	-0.95824043	1.4302316	-0.072389546	-0.92150587	1.0780863	-0.33760005	-1.0170399	1.073078	0.12923813	-0.74398482	0.90438527	-0.30418495	-0.94958004	0.84945262	0.20226845
73	0.288	-1.161808	0.085239192	-0.20264225	-0.6867229	0.039243622	-0.043148734	-1.1791932	0.22330982	-0.22747889	-0.82386588	0.052076799	-0.00064923286	-1.1493547	0.21880401	-0.14921611	-0.81126172	0.081857499	-0.083779843	-1.2290827	0.26448764	-0.17826213	-0.87866424	0.028834797	-0.047133798	-0.87013851	0.4301739	-0.25261255	-0.77868081	0.45036006	0.048388392	-0.85004497	0.39184169	-0.13769314	-0.7744316	0.46131296	-0.079104474	-0.89195334	0.81039853	-0.25278138	-0.84915046	0.85521485	0.12650603	-0.82631857	0.92026303	-0.20082756	-0.78894865	0.94309059	0.040838724	-1.0063064	0.9498358	-0.052636127	-0.8499647	1.4076501	-0.22274462	-0.88805094	1.3980842	0.098236681	-0.9529474	1.4315171	-0.072098261	-0.91768501	1.0799204	-0.33691977	-1.0100016	1.0734341	0.12845897	-0.74238342	0.90415658	-0.30422541	-0.94029978	0.85047899	0.20298122
74	0.292	-1.1453807	0.08546168	-0.20363681	-0.68690751	0.039307527	-0.042949693	-1.1655022	0.22282566	-0.22749689	-0.8238398	0.052079936	-0.0007020942	-1.135757	0.21846513	-0.14914712	-0.81147454	0.081946292	-0.08367419	-1.2164484	0.26288669	-0.1781554	-0.87869594	0.028677373	-0.046710273	-0.85789595	0.43188608	-0.25194757	-0.77767048	0.45044977	0.048720125	-0.8382807	0.39383601	-0.1368452	-0.77344357	0.46114609	-0.078800307	-0.88535991	0.81206561	-0.25273205	-0.84488822	0.85613949	0.12706114	-0.82032527	0.92210519	-0.20039583	-0.78433366	0.94449974	0.041749805	-1.0008833	0.95110631	-0.053226788	-0.8449187	1.4092712	-0.2223868	-0.88313088	1.399525	0.09865195	-0.94765408	1.4327959	-0.071810962	-0.91387382	1.0817761	-0.33624312	-1.0026598	1.0737283	0.12796531	-0.74083249	0.9039388	-0.30426995	-0.93085751	0.85158127	0.20380935
75	0.296	-1.1289147	0.085517665	-0.20446475	-0.68707175	0.039368113	-0.042777512	-1.1517896	0.22213155	-0.22747716	-0.82373279	0.052056585	-0.00079349469	-1.122038	0.21794768	-0.14908609	-0.81166613	0.082029874	-0.083593243	-1.2037113	0.26102457	-0.17807145	-0.87873115	0.028608078	-0.046545288	-0.84579086	0.43366915	-0.25126163	-0.77647409	0.45054398	0.049073954	-0.82632979	0.39595818	-0.13593326	-0.77253727	0.46095511	-0.078507937	-0.87875699	0.81367872	-0.25272653	-0.84058305	0.85704846	0.12761104	-0.81428483	0.92392272	-0.1998894	-0.77993515	0.94588674	0.042576781	-0.99548615	0.95234577	-0.053853355	-0.83972062	1.4108647	-0.22197025	-0.87820421	1.4009571	0.099036781	-0.94235383	1.4340702	-0.071524397	-0.91007199	1.0836398	-0.33556182	-0.99526853	1.0740473	0.1282394	-0.73932695	0.90372622	-0.30432347	-0.92133525	0.8527308	0.20463748
